<?xml version="1.0" encoding="UTF-8" standalone="no"?>
<svg
   width="38.711384mm"
   height="44.276592mm"
   version="1.1"
   style="clip-rule:evenodd;fill-rule:evenodd;image-rendering:optimizeQuality;shape-rendering:geometricPrecision;text-rendering:geometricPrecision"
   viewBox="0 0 3871.1383 4427.6591"
   id="svg1"
   sodipodi:docname="place.svg"
   inkscape:export-filename="label-2935363.png"
   inkscape:export-xdpi="96"
   inkscape:export-ydpi="96"
   xmlns:inkscape="http://www.inkscape.org/namespaces/inkscape"
   xmlns:sodipodi="http://sodipodi.sourceforge.net/DTD/sodipodi-0.dtd"
   xmlns="http://www.w3.org/2000/svg"
   xmlns:svg="http://www.w3.org/2000/svg">
  <sodipodi:namedview
     id="namedview1"
     pagecolor="#ffffff"
     bordercolor="#000000"
     borderopacity="0.25"
     inkscape:showpageshadow="2"
     inkscape:pageopacity="0.0"
     inkscape:pagecheckerboard="0"
     inkscape:deskcolor="#d1d1d1"
     inkscape:document-units="mm" />
  <defs
     id="defs1">
    <style
       type="text/css"
       id="style1">  .fil0 {fill:#F0F0F0} .fil1 {fill:#011627;fill-rule:nonzero}  </style>
  </defs>
  <g
     id="Layer_x0020_1"
     inkscape:label="Layer 1"
     inkscape:groupmode="layer"
     transform="translate(-2406.7378,-1752.7863)">
    <metadata
       id="CorelCorpID_0Corel-Layer" />
    <g
       id="_2744591182304"
       transform="translate(250.87603,-614.21382)">
      <path
         class="fil1"
         d="M 4572,6502 5780,4241 c 23,-66 40,-134 52,-203 12,-70 18,-142 18,-216 0,-353 -143,-673 -374,-904 -232,-231 -551,-374 -904,-374 -353,0 -672,143 -904,374 -231,231 -374,551 -374,904 0,74 6,146 18,216 12,69 29,137 52,203 z m 0,-3475 c 224,0 426,91 572,238 147,146 238,348 238,572 0,46 -4,91 -12,136 -8,45 -19,89 -34,132 -56,160 -161,297 -297,393 -132,93 -293,148 -467,148 -174,0 -335,-55 -467,-148 -136,-96 -240,-233 -296,-393 l -1,1 c -15,-43 -26,-87 -34,-133 -8,-45 -12,-90 -12,-136 0,-224 91,-426 238,-572 146,-147 348,-238 572,-238 z m 448,362 c -115,-114 -273,-185 -448,-185 -175,0 -333,71 -448,185 -114,115 -185,273 -185,448 0,37 3,73 9,107 6,35 15,70 26,103 44,125 126,232 232,307 103,73 229,116 366,116 137,0 263,-43 366,-116 106,-75 188,-182 232,-307 11,-33 20,-67 26,-103 6,-34 9,-70 9,-107 0,-175 -71,-333 -185,-448 z m 919,927 -1289,2413 c -8,16 -20,29 -37,37 -42,23 -96,7 -119,-36 L 3208,4322 c -3,-6 -6,-11 -8,-18 -27,-76 -48,-156 -62,-237 -13,-81 -21,-162 -21,-245 0,-402 163,-765 427,-1029 263,-263 626,-426 1028,-426 402,0 765,163 1028,426 264,264 427,627 427,1029 0,83 -8,164 -21,245 -14,81 -35,161 -62,237 -1,4 -3,8 -5,12 z"
         id="path1" />
    </g>
    <g
       id="g4"
       transform="rotate(17.4,4056.1367,786.95035)">
      <g
         style="fill:#011627;fill-opacity:1;stroke:#000000;stroke-width:0;stroke-linejoin:miter;stroke-dasharray:none;stroke-opacity:1"
         id="g11"
         transform="matrix(62.889899,0,0,61.975803,-24943.545,-34360.508)">
        <path
           d="m 456.91656,592.9428 c 3.17841,3.2794 3.1587,3.17744 0.73948,5.62776 -2.37839,2.43017 -4.14118,4.15104 -5.24747,5.14254 -0.47134,0.44535 -1.20953,1.215 -1.62,1.7014 -0.63647,0.79064 -0.84097,0.9116 -1.49292,0.9076 -0.65195,-0.004 -0.87527,-0.1277 -1.40078,-0.8032 -0.34357,-0.45036 -1.21372,-1.4133 -1.92221,-2.15116 -2.08533,-2.13178 -2.46613,-3.15277 -1.66459,-4.28874 0.32903,-0.48696 3.52698,-3.66585 5.28903,-5.2849 0.45075,-0.4047 1.37333,-1.33615 2.07053,-2.06534 1.16895,-1.2356 1.35307,-1.35663 2.04563,-1.33206 0.71277,0.0452 0.99658,0.271 3.2033,2.5461 z"
           id="path11"
           style="fill:#011627;fill-opacity:1;stroke:#000000;stroke-width:0;stroke-dasharray:none;stroke-opacity:1" />
      </g>
      <g
         style="fill:#011627;fill-opacity:1;stroke:#000000;stroke-width:0;stroke-linejoin:miter;stroke-dasharray:none;stroke-opacity:1"
         id="g12"
         transform="matrix(62.889899,0,0,61.975803,-24943.545,-34360.508)">
        <path
           d="m 466.838,602.9261 c 1.21473,1.25035 2.4301,2.3987 2.67354,2.5632 0.26373,0.185 0.46591,0.43074 0.46506,0.5734 -9e-4,0.14256 0.78854,0.9828 1.761,1.86485 0.95213,0.88195 2.1673,2.05078 2.67326,2.60395 0.80974,0.8403 3.86694,3.956 4.77826,4.85815 0.16195,0.164 2.34866,2.37785 4.83893,4.91962 2.49023,2.54163 4.71765,4.75573 4.96112,4.92016 0.24337,0.18487 0.4852,0.61427 0.54376,1.02203 0.11801,0.69349 0.0565,0.75424 -1.9505,2.43284 -1.12643,0.95065 -2.15097,1.9019 -2.2746,2.1253 -0.12363,0.22324 -1.29253,1.4589 -2.58398,2.7344 -1.31177,1.27546 -2.46021,2.49085 -2.56321,2.67347 -0.12374,0.24383 -0.43011,0.36413 -0.85794,0.36153 -0.65194,-0.004 -1.52328,-0.76327 -4.8431,-4.2473 -0.4048,-0.43033 -0.89075,-0.9223 -1.05268,-1.08634 -0.18237,-0.16406 -0.74908,-0.77876 -1.27532,-1.33216 -0.54658,-0.57384 -1.7007,-1.74224 -2.59193,-2.583 -0.89114,-0.8612 -2.531,-2.542 -3.64422,-3.7305 -1.1131,-1.209 -2.12571,-2.1932 -2.24799,-2.19394 -0.12222,-7.6e-4 -0.44629,-0.30836 -0.70886,-0.6767 -0.26245,-0.38873 -1.39615,-1.557 -2.51013,-2.62336 -1.11399,-1.06633 -2.7136,-2.66533 -3.54337,-3.5669 -0.82974,-0.90153 -1.86203,-2.0081 -2.28708,-2.45897 -1.33592,-1.414 -1.2948,-1.47493 4.17798,-6.81973 3.89462,-3.8266 4.81647,-4.6359 5.2849,-4.61264 0.42784,0.003 1.05617,0.53624 2.7771,2.27864 z"
           id="path12"
           style="fill:#011627;fill-opacity:1;stroke:#000000;stroke-width:0;stroke-dasharray:none;stroke-opacity:1" />
      </g>
      <g
         style="fill:#011627;fill-opacity:1;stroke:#000000;stroke-width:0;stroke-linejoin:miter;stroke-dasharray:none;stroke-opacity:1"
         id="g13"
         transform="matrix(62.889899,0,0,61.975803,-24943.545,-34360.508)">
        <path
           d="m 495.48712,632.0337 c 0.60694,0.6964 1.25421,1.4543 1.39545,1.67925 0.30307,0.4093 0.76068,2.18465 1.35251,5.32585 0.17785,0.8976 0.37677,1.67293 0.43752,1.7344 0.14198,0.10284 0.81428,3.40746 0.811,3.9372 -0.001,0.16295 -0.43233,0.73076 -0.9448,1.2369 -1.0251,1.0328 -1.86152,1.211 -2.8969,0.61374 -0.5889,-0.30921 -3.9658,-1.14504 -4.6992,-1.14954 -0.22413,-0.001 -0.9971,-0.1895 -1.68843,-0.418 -0.7117,-0.2285 -1.66757,-0.4992 -2.1354,-0.62436 -1.03739,-0.27124 -3.71164,-2.71224 -3.70749,-3.38454 0.002,-0.2852 0.94568,-1.3795 2.66772,-3.1006 1.476,-1.47824 2.76697,-2.6723 2.86884,-2.6717 0.0815,5e-4 0.9834,-0.8904 1.96814,-1.98446 2.72805,-2.97808 2.95254,-3.03784 4.57104,-1.19414 z"
           id="path13"
           style="fill:#011627;fill-opacity:1;stroke:#000000;stroke-width:0;stroke-dasharray:none;stroke-opacity:1" />
      </g>
    </g>
  </g>
</svg>
