<?xml version="1.0" encoding="UTF-8"?>
<svg version="1.1" viewBox="0 0 66.145833 54.131608" xmlns="http://www.w3.org/2000/svg">
 <g transform="translate(-65.201 -44.66)">
  <path d="m86.075 45.19c-7.6952 0-13.929 6.2416-13.929 13.937 0 7.6952 6.2342 13.929 13.929 13.929 3.3572 0 6.4413-1.1899 8.8468-3.1675l5.1195 1.8784-2.4087-4.8543c1.5024-2.2238 2.3793-4.9003 2.3793-7.7861 2e-5 -7.6952-6.2416-13.937-13.937-13.937zm19.705 28.47c-4.1188 0-7.4619 3.1115-7.4619 6.9463s3.3431 6.9389 7.4619 6.9389c4.1189 0 7.4546-3.1041 7.4546-6.9389s-3.3357-6.9463-7.4546-6.9463zm-33.774 5.8267c-2.5777 0-4.6702 1.9461-4.6702 4.346s2.0925 4.3387 4.6702 4.3387c2.5776 0 4.6701-1.9387 4.6701-4.3387 2e-5 -2.3999-2.0925-4.346-4.6701-4.346zm15.012 0c-2.5777 0-4.6701 1.9461-4.6701 4.346s2.0925 4.3387 4.6701 4.3387c2.5777 0 4.6628-1.9387 4.6628-4.3387 0-2.3999-2.0851-4.346-4.6628-4.346zm37.523 0c-2.5777 0-4.6702 1.9461-4.6702 4.346s2.0925 4.3387 4.6702 4.3387 4.6628-1.9387 4.6628-4.3387c0-2.3999-2.0851-4.346-4.6628-4.346zm-23.645 9.0088c-2.8494 0-5.1489 2.2922-5.1489 5.1416v4.626h20.058v-4.626c0-2.8494-2.2921-5.1416-5.1416-5.1416h-9.7676zm-31.947 0.9208c-1.7832 0-3.219 1.4358-3.219 3.219v2.8949h12.552v-2.8949c0-1.7832-1.4358-3.219-3.219-3.219h-6.1139zm15.012 0c-1.7832 0-3.219 1.4358-3.219 3.219v2.8949h12.552v-2.8949c0-1.7832-1.4358-3.219-3.219-3.219h-6.1139zm37.523 0c-1.7832 0-3.219 1.4358-3.219 3.219v2.8949h12.552v-2.8949c0-1.7832-1.4358-3.219-3.219-3.219h-6.1139z" fill="#333"/>
 </g>
</svg>
