<?xml version="1.0" encoding="UTF-8" standalone="no"?>
<svg
   width="29.1mm"
   height="44.095039mm"
   version="1.1"
   style="clip-rule:evenodd;fill-rule:evenodd;image-rendering:optimizeQuality;shape-rendering:geometricPrecision;text-rendering:geometricPrecision"
   viewBox="0 0 2910 4409.5038"
   id="svg1"
   sodipodi:docname="place.svg"
   inkscape:export-filename="label-2935363.png"
   inkscape:export-xdpi="96"
   inkscape:export-ydpi="96"
   xmlns:inkscape="http://www.inkscape.org/namespaces/inkscape"
   xmlns:sodipodi="http://sodipodi.sourceforge.net/DTD/sodipodi-0.dtd"
   xmlns="http://www.w3.org/2000/svg"
   xmlns:svg="http://www.w3.org/2000/svg">
  <sodipodi:namedview
     id="namedview1"
     pagecolor="#ffffff"
     bordercolor="#000000"
     borderopacity="0.25"
     inkscape:showpageshadow="2"
     inkscape:pageopacity="0.0"
     inkscape:pagecheckerboard="0"
     inkscape:deskcolor="#d1d1d1"
     inkscape:document-units="mm"
     inkscape:zoom="2.277199"
     inkscape:cx="172.58044"
     inkscape:cy="172.8"
     inkscape:window-width="1920"
     inkscape:window-height="1001"
     inkscape:window-x="2391"
     inkscape:window-y="-9"
     inkscape:window-maximized="1"
     inkscape:current-layer="Layer_x0020_1" />
  <defs
     id="defs1">
    <style
       type="text/css"
       id="style1">  .fil0 {fill:#F0F0F0} .fil1 {fill:#011627;fill-rule:nonzero}  </style>
  </defs>
  <g
     id="Layer_x0020_1"
     inkscape:label="Layer 1"
     inkscape:groupmode="layer"
     transform="translate(-3117,-2367)">
    <metadata
       id="CorelCorpID_0Corel-Layer" />
    <g
       id="_2744591182304">
      <path
         class="fil1"
         d="M 4572,6502 5780,4241 c 23,-66 40,-134 52,-203 12,-70 18,-142 18,-216 0,-353 -143,-673 -374,-904 -232,-231 -551,-374 -904,-374 -353,0 -672,143 -904,374 -231,231 -374,551 -374,904 0,74 6,146 18,216 12,69 29,137 52,203 z m 0,-3475 c 224,0 426,91 572,238 147,146 238,348 238,572 0,46 -4,91 -12,136 -8,45 -19,89 -34,132 -56,160 -161,297 -297,393 -132,93 -293,148 -467,148 -174,0 -335,-55 -467,-148 -136,-96 -240,-233 -296,-393 l -1,1 c -15,-43 -26,-87 -34,-133 -8,-45 -12,-90 -12,-136 0,-224 91,-426 238,-572 146,-147 348,-238 572,-238 z m 448,362 c -115,-114 -273,-185 -448,-185 -175,0 -333,71 -448,185 -114,115 -185,273 -185,448 0,37 3,73 9,107 6,35 15,70 26,103 44,125 126,232 232,307 103,73 229,116 366,116 137,0 263,-43 366,-116 106,-75 188,-182 232,-307 11,-33 20,-67 26,-103 6,-34 9,-70 9,-107 0,-175 -71,-333 -185,-448 z m 919,927 -1289,2413 c -8,16 -20,29 -37,37 -42,23 -96,7 -119,-36 L 3208,4322 c -3,-6 -6,-11 -8,-18 -27,-76 -48,-156 -62,-237 -13,-81 -21,-162 -21,-245 0,-402 163,-765 427,-1029 263,-263 626,-426 1028,-426 402,0 765,163 1028,426 264,264 427,627 427,1029 0,83 -8,164 -21,245 -14,81 -35,161 -62,237 -1,4 -3,8 -5,12 z"
         id="path1" />
    </g>
  </g>
</svg>
